<svg xmlns="http://www.w3.org/2000/svg" viewBox="0 0 24 24" fill="currentColor" style="transition: transform 0.3s ease-in-out;" onmouseover="this.style.transform='rotate(-90deg)'" onmouseout="this.style.transform='rotate(0deg)'">
  <path d="M7.75 2C5.4 2 4 3.4 4 5.75v12.5C4 20.6 5.4 22 7.75 22h8.5c2.35 0 3.75-1.4 3.75-3.75V5.75C20 3.4 18.6 2 16.25 2h-8.5zM12 7.25a4.75 4.75 0 1 1 0 9.5 4.75 4.75 0 0 1 0-9.5zm5.25-.5a.75.75 0 1 1 0 1.5.75.75 0 0 1 0-1.5zM12 8.75a3.25 3.25 0 1 0 0 6.5 3.25 3.25 0 0 0 0-6.5z"/>
</svg>

